<svg width="86" height="86" viewBox="0 0 86 86" fill="none" xmlns="http://www.w3.org/2000/svg">
<path fill-rule="evenodd" clip-rule="evenodd" d="M85.8523 40.7483L85.6888 38.5778L85.4138 36.4296L85.0347 34.3186L84.5515 32.2448L83.9717 30.2081L83.2953 28.2161L82.5223 26.2686L81.66 24.3657L80.7086 22.5149L79.668 20.7161L78.553 18.9693L77.3488 17.2894L76.0778 15.6615L74.725 14.1006L73.2978 12.614L71.8038 11.1868L70.2428 9.83399L68.6224 8.5555L66.9351 7.35877L65.1957 6.23637L63.3969 5.20317L61.5461 4.25173L59.6432 3.38949L57.6957 2.61645L55.6962 1.94004L53.667 1.36026L51.5857 0.877106L49.4747 0.498018L47.334 0.222993L45.1561 0.0594648L42.9559 0L40.7557 0.0594648L38.5778 0.222993L36.4296 0.498018L34.3186 0.877106L32.2448 1.36026L30.2081 1.94004L28.2161 2.61645L26.2686 3.38949L24.3657 4.25173L22.5149 5.20317L20.7161 6.23637L18.9693 7.35877L17.2894 8.5555L15.6615 9.83399L14.1006 11.1868L12.614 12.614L11.1868 14.1006L9.83399 15.6615L8.5555 17.2894L7.35877 18.9693L6.23637 20.7161L5.20317 22.5149L4.25173 24.3657L3.38949 26.2686L2.61645 28.2161L1.94004 30.2081L1.36026 32.2448L0.877106 34.3186L0.498018 36.4296L0.222993 38.5778L0.0520317 40.7483L0 42.9559L0.0520317 45.1561L0.222993 47.334L0.498018 49.4747L0.877106 51.5857L1.36026 53.667L1.94004 55.6962L2.61645 57.6957L3.38949 59.6432L4.25173 61.5461L5.20317 63.3969L6.23637 65.1957L7.35877 66.9351L8.5555 68.6224L9.83399 70.2428L11.1868 71.8038L12.614 73.2978L14.1006 74.7175L15.6615 76.0704L17.2894 77.3488L18.9693 78.553L20.7161 79.668L22.5149 80.7086L24.3657 81.66L26.2686 82.5223L28.2161 83.2953L30.2081 83.9717L32.2448 84.5515L34.3186 85.0347L36.4296 85.4138L38.5778 85.6888L40.7483 85.8523L42.9559 85.9118L45.1561 85.8523L47.334 85.6888L49.4747 85.4138L51.5857 85.0347L53.667 84.5515L55.6962 83.9717L57.6957 83.2953L59.6432 82.5223L61.5461 81.66L63.3969 80.7086L65.1957 79.668L66.9351 78.553L68.6224 77.3488L70.2428 76.0704L71.8038 74.725L73.2978 73.2978L74.725 71.8038L76.0778 70.2428L77.3488 68.6224L78.553 66.9351L79.668 65.1957L80.7086 63.3969L81.66 61.5461L82.5223 59.6432L83.2953 57.6957L83.9717 55.6962L84.5515 53.667L85.0347 51.5857L85.4138 49.4747L85.6888 47.334L85.8523 45.1561L85.9118 42.9559L85.8523 40.7483Z" fill="url(#paint0_linear_15755_64481)"/>
<path d="M58.9892 59.7322L58.9 59.4051L58.7959 59.0929L58.677 58.7808L58.5432 58.4834L58.3945 58.1861L58.231 57.9037L58.0526 57.6286L57.8668 57.361L57.6661 57.1083L57.458 56.863L57.235 56.6252L57.0046 56.4022L56.7593 56.1866L56.5065 55.9859L56.2389 55.8001L55.9714 55.6217L55.6889 55.4582L55.4064 55.3095L55.1091 55.1757L54.8044 55.0568L54.4996 54.9527L54.18 54.8561L53.8604 54.7817L53.5333 54.7223L53.2062 54.6851L52.8717 54.6554L52.5298 54.6479L52.1805 54.6554L51.8311 54.6851L51.4892 54.7223L51.1547 54.7817L50.8276 54.8561L50.508 54.9527L50.1884 55.0568L49.8836 55.1757L49.5789 55.3095L49.289 55.4656L49.0065 55.6217L48.7315 55.8001L48.4639 55.9933L48.2112 56.194L47.9659 56.4022L47.728 56.6252L47.5051 56.863L47.2895 57.1083L47.0888 57.3685L46.903 57.6361L46.7246 57.9037L46.561 58.1935L46.4124 58.4834L46.2786 58.7808L46.1522 59.0929L46.0482 59.4051L45.959 59.7322L45.8846 60.0593L45.8252 60.3937L45.7806 60.7357L45.7508 61.0776L45.7434 61.4269L45.7508 61.7689L45.7806 62.1034L45.8252 62.4378L45.8846 62.7649L45.959 63.0845L46.0482 63.3967L46.1522 63.7089L46.2712 64.0137L46.4124 64.3036L46.561 64.5934L46.7246 64.8759L46.8955 65.1435L47.0888 65.4036L47.2895 65.6564L47.4976 65.9017L47.728 66.1321L47.9585 66.3551L48.2038 66.5706L48.4639 66.7713L48.7315 66.9572L49.0065 67.1281L49.289 67.2917L49.5789 67.4403L49.8836 67.5741L50.1884 67.7005L50.508 67.8045L50.8276 67.8937L51.1547 67.9681L51.4892 68.0275L51.8311 68.0721L52.1805 68.1019L52.5298 68.1093L52.8717 68.1019L53.2062 68.0721L53.5333 68.0275L53.8604 67.9681L54.18 67.8937L54.4996 67.8045L54.8044 67.7005L55.1091 67.5815L55.4064 67.4403L55.6963 67.2917L55.9714 67.1356L56.2464 66.9572L56.5065 66.7713L56.7593 66.5706L57.0046 66.3625L57.235 66.1395L57.458 65.9017L57.6661 65.6638L57.8668 65.4111L58.0601 65.1435L58.231 64.8759L58.3945 64.5934L58.5432 64.3036L58.677 64.0137L58.7959 63.7089L58.9 63.3967L58.9966 63.0845L59.071 62.7649L59.1304 62.4378L59.1676 62.1034L59.1973 61.7689L59.2048 61.4269L59.1973 61.0776L59.1676 60.7357L59.1304 60.3937L59.071 60.0593L58.9892 59.7322Z" fill="#004A99"/>
<path d="M83.8455 40.9119L83.6894 38.8455L83.4292 36.8014L83.065 34.7945L82.6041 32.8173L82.0541 30.8772L81.4074 28.9818L80.6715 27.1235L79.8539 25.3173L78.947 23.5556L77.9584 21.8386L76.8955 20.181L75.7508 18.5754L74.5318 17.0294L73.2459 15.5427L72.4059 14.6582L69.9307 17.1334L67.3886 19.6755L59.6953 27.3688H66.9798V65.7756H70.3915V73.3277L70.4659 73.2608L71.8856 71.9079L73.2459 70.4808L74.5318 68.9942L75.7508 67.4481L76.8955 65.85L77.9584 64.185L78.947 62.4753L79.8539 60.7063L80.6715 58.9L81.4074 57.0417L82.0541 55.1463L82.6041 53.2063L83.065 51.2365L83.4292 49.2221L83.6894 47.1855L83.8455 45.1116L83.8975 43.0155L83.8455 40.9119Z" fill="#004A99"/>
<path d="M59.5764 73.6768L59.3906 73.7809L59.175 73.8998L58.952 74.0113L58.729 74.1228L58.506 74.2343L58.2756 74.3309L58.0452 74.435L57.8148 74.5316L57.5843 74.6208L57.3465 74.71L57.1086 74.7918L56.8708 74.8735L56.6255 74.9479L56.3802 75.0222L56.1349 75.0891L55.8896 75.1485L55.6443 75.208L55.3916 75.2675L55.1389 75.3121L54.8861 75.3567L54.626 75.4013L54.3732 75.4384L54.1131 75.4682L53.8529 75.4979L53.5928 75.5202L53.3252 75.5351L53.065 75.5499L52.7974 75.5574H52.5224L51.8014 75.5425L51.0878 75.483L50.3817 75.3938L49.683 75.2675L48.9991 75.104L48.3301 74.9107L47.676 74.6877L47.0293 74.435L46.405 74.1525L45.788 73.8329L45.2008 73.491L44.621 73.1193L44.0635 72.7254L43.5283 72.3017L43.0155 71.8557L42.5249 71.3874L42.0492 70.8894L41.6032 70.3765L41.1795 69.8413L40.7855 69.2838L40.4139 68.7115L40.072 68.1168L39.7598 67.5073L39.4699 66.8755L39.2171 66.2363L38.9942 65.5747L38.8009 64.9057L38.6374 64.2219L38.511 63.5232L38.4218 62.817L38.3698 62.1035L38.3475 61.375L38.3698 60.654L38.4218 59.933L38.511 59.2268L38.6374 58.5356L38.8009 57.8517L38.9942 57.1753L39.2171 56.5212L39.4699 55.8745L39.7598 55.2501L40.072 54.6406L40.4139 54.046L40.7855 53.4736L41.1795 52.9161L41.6032 52.3735L42.0492 51.8606L42.5249 51.3701L43.0155 50.9018L43.5283 50.4558L44.0635 50.0321L44.621 49.6307L45.2008 49.2665L45.788 48.9171L46.405 48.6049L47.0293 48.3225L47.676 48.0623L48.3301 47.8393L48.9991 47.6461L49.683 47.49L50.3817 47.3636L51.0878 47.267L51.8014 47.215L52.5224 47.2001H52.7974L53.0576 47.2075L53.3252 47.215L53.5853 47.2373L53.8455 47.2521L54.1056 47.2819L54.3658 47.3116L54.626 47.3413L54.8787 47.3859L55.1314 47.4231L55.3841 47.4751L55.6369 47.5271L55.8822 47.5792L56.1275 47.6386L56.3727 47.7055L56.618 47.7724L56.8633 47.8468L57.1012 47.9285L57.339 48.0029L57.5769 48.0921L57.8073 48.1813L58.0378 48.2779L58.2682 48.3745L58.4986 48.4786L58.7216 48.5826L58.9446 48.6867L59.1007 48.7685V35.3071H51.7568L36.4 50.6639L33.8504 53.206L19.6607 67.4033L17.1111 69.9454L14.6433 72.4206L15.5204 73.2605L17.007 74.5539L18.5531 75.7655L20.1587 76.9102L21.8237 77.9806L23.5333 78.9617L25.2949 79.8686L27.1086 80.6936L28.9595 81.4295L30.8623 82.0688L32.8024 82.6263L34.7721 83.0797L36.7865 83.4439L38.8232 83.704L40.897 83.8601L42.9932 83.9196L45.0967 83.8601L47.1631 83.704L49.2072 83.4439L51.2142 83.0797L53.1914 82.6263L55.1314 82.0688L57.0269 81.4295L58.8851 80.6936L60.6914 79.8686L62.453 78.9617L64.1701 77.9806L65.8277 76.9102L67.4332 75.7655L68.9793 74.5539L69.9456 73.714H59.7697L59.5764 73.6768Z" fill="#004A99"/>
<path d="M70.451 12.7554L68.9644 11.4695L68.8604 11.3877V16.0706L71.3356 13.5953L70.451 12.7554Z" fill="#B90E1D"/>
<path d="M47.1482 2.31164L45.0818 2.15555L42.9783 2.10352L40.8821 2.15555L38.8083 2.31164L36.7716 2.5718L35.3296 2.83196V17.1258H50.6343V2.83196L49.1923 2.5718L47.1482 2.31164Z" fill="#B90E1D"/>
<path d="M15.5053 12.7554L14.0856 14.1082L12.7254 15.5354L11.4394 17.022L11.3577 17.126H17.096V11.3877L16.992 11.4695L15.5053 12.7554Z" fill="#B90E1D"/>
<path d="M33.8354 18.6123H18.5901V33.8576H33.8354V18.6123Z" fill="#B90E1D"/>
<path d="M52.1208 27.3611H57.5693L66.3181 18.6123H52.1208V27.3611Z" fill="#B90E1D"/>
<path d="M35.3296 49.6013L49.5788 35.3521H35.3296V49.6013Z" fill="#B90E1D"/>
<path d="M2.54945 36.7941L2.28929 38.8382L2.1332 40.9046L2.07373 43.0081L2.1332 45.1043L2.28929 47.1781L2.54945 49.2148L2.80961 50.6568H17.096V35.3521H2.80961L2.54945 36.7941Z" fill="#B90E1D"/>
<path d="M18.5901 66.3407L32.7873 52.1509H18.5901V66.3407Z" fill="#B90E1D"/>
<path d="M11.4394 68.9868L12.7254 70.4734L13.5727 71.3579L16.048 68.8901H11.3577L11.4394 68.9868Z" fill="#B90E1D"/>
<path d="M67.3661 10.2354L65.8126 9.12785L64.1476 8.05749L62.438 7.06888L60.6763 6.16204L58.8627 5.3444L57.0118 4.60853L55.109 3.96185L53.1763 3.4118L52.1208 3.1665V17.1407H67.3661V10.2354Z" fill="white"/>
<path d="M3.36712 53.221L3.91717 55.1536L4.56385 57.0565L5.29973 58.9073L6.11737 60.721L7.0242 62.4827L8.01281 64.1997L9.07574 65.8573L10.1907 67.4108H17.0961V52.1655H3.12183L3.36712 53.221Z" fill="white"/>
<path d="M33.8354 35.374H18.5901V50.6788H33.8354V35.374Z" fill="white"/>
<path d="M50.6269 28.8701V27.3835V18.6348H35.3296V33.8801H50.6269V28.8701Z" fill="white"/>
<path d="M9.07574 20.1883L8.01281 21.8459L7.0242 23.5629L6.11737 25.3246L5.29973 27.1382L4.56385 28.9891L3.91717 30.8919L3.36712 32.8246L3.12183 33.8801H17.0961V18.6348H10.1907L9.07574 20.1883Z" fill="white"/>
<path d="M30.8473 3.96185L28.9444 4.60853L27.0936 5.3444L25.2799 6.16204L23.5182 7.06888L21.8012 8.05749L20.1436 9.12785L18.5901 10.2354V17.1407H33.8354V3.1665L32.7799 3.4118L30.8473 3.96185Z" fill="white"/>
<path d="M65.5972 66.9425V28.5356H51.7419V33.9915H60.1933V50.8721L59.2344 50.27L57.6289 49.4301L55.9044 48.8206L54.0684 48.4564L52.3885 48.3523L51.7196 48.3672L51.0654 48.4192L50.4188 48.501L49.787 48.6125L48.5531 48.9321L47.951 49.1402L46.7914 49.6308L45.6913 50.2329L44.6581 50.9316L43.6992 51.7269L42.8221 52.6115L42.0268 53.5703L41.3281 54.6035L40.726 55.7036L40.2354 56.8632L39.8563 58.0748L39.7077 58.6992L39.5962 59.331L39.5144 59.9777L39.4624 60.6318L39.4475 61.2933L39.4624 61.9549L39.5144 62.609L39.5962 63.2482L39.7077 63.88L39.8563 64.5044L40.0347 65.1139L40.4733 66.3032L41.0233 67.4331L41.6774 68.5034L42.4282 69.4995L43.2681 70.4212L44.1898 71.2611L45.1859 72.0119L46.2562 72.666L47.3861 73.216L48.5754 73.6546L49.1849 73.833L49.8093 73.9742L50.4411 74.0857L51.0877 74.1675L51.7419 74.2195L52.4034 74.2344L54.0759 74.1229L55.9118 73.7438L57.6363 73.1194L60.2007 71.6699V72.3909H69.0164V66.9351H65.6046L65.5972 66.9425ZM60.2602 62.1556L60.1413 62.936L59.9406 63.6942L59.673 64.4227L59.3385 65.1139L58.9371 65.7681L58.4837 66.3776L57.9708 66.9425L57.4059 67.4554L56.7964 67.9162L56.1423 68.3176L55.451 68.6521L54.7225 68.9197L53.9644 69.1204L53.1839 69.2393L52.3811 69.2839L51.556 69.2467L50.7607 69.1278L49.9876 68.9346L49.2518 68.667L48.5456 68.3325L47.8841 67.9385L47.2671 67.4851L46.6948 66.9722L46.1745 66.4073L45.7136 65.7978L45.3122 65.1437L44.9777 64.4524L44.7101 63.724L44.5095 62.9658L44.3905 62.1853L44.3459 61.3825L44.3831 60.5574L44.502 59.7621L44.6953 58.9891L44.9629 58.2532L45.2974 57.5545L45.6987 56.8929L46.1596 56.276L46.6799 55.7036L47.2448 55.1833L47.8618 54.7225L48.5233 54.3211L49.222 53.9866L49.9579 53.719L50.731 53.5183L51.5263 53.3994L52.3514 53.3548L53.1542 53.3994L53.9346 53.5183L54.6928 53.7116L55.4212 53.9792L56.1125 54.3136L56.7666 54.715L57.3762 55.1759L57.9411 55.6962L58.454 56.2611L58.9148 56.8781L59.3162 57.5396L59.6507 58.2383L59.9183 58.9742L60.119 59.7472L60.2379 60.5426L60.2825 61.3677L60.2453 62.1704L60.2602 62.1556Z" fill="white"/>
<defs>
<linearGradient id="paint0_linear_15755_64481" x1="6.31813" y1="70.9118" x2="78.0327" y2="16.1893" gradientUnits="userSpaceOnUse">
<stop stop-color="#D8C893"/>
<stop offset="0.25" stop-color="#8E8562"/>
<stop offset="0.56" stop-color="#ACA077"/>
<stop offset="1" stop-color="#D8C893"/>
</linearGradient>
</defs>
</svg>
